<?xml version="1.0" encoding="UTF-8" standalone="no"?>
<!-- Created with Inkscape (http://www.inkscape.org/) -->

<svg
   xmlns:dc="http://purl.org/dc/elements/1.1/"
   xmlns:cc="http://creativecommons.org/ns#"
   xmlns:rdf="http://www.w3.org/1999/02/22-rdf-syntax-ns#"
   xmlns:svg="http://www.w3.org/2000/svg"
   xmlns="http://www.w3.org/2000/svg"
   xmlns:sodipodi="http://sodipodi.sourceforge.net/DTD/sodipodi-0.dtd"
   xmlns:inkscape="http://www.inkscape.org/namespaces/inkscape"
   width="358.70551"
   height="358.1225"
   id="svg2"
   version="1.1"
   inkscape:version="0.48.3.1 r9886"
   sodipodi:docname="GrAF.svg">
  <title
     id="title8860">GrAF logo</title>
  <defs
     id="defs4" />
  <sodipodi:namedview
     id="base"
     pagecolor="#ffffff"
     bordercolor="#666666"
     borderopacity="1.0"
     inkscape:pageopacity="0.0"
     inkscape:pageshadow="2"
     inkscape:zoom="0.7"
     inkscape:cx="106.46483"
     inkscape:cy="84.831539"
     inkscape:document-units="px"
     inkscape:current-layer="layer1"
     showgrid="false"
     fit-margin-top="1"
     fit-margin-left="1"
     fit-margin-bottom="1"
     fit-margin-right="1"
     inkscape:window-width="1920"
     inkscape:window-height="1143"
     inkscape:window-x="-2"
     inkscape:window-y="-3"
     inkscape:window-maximized="1" />
  <metadata
     id="metadata7">
    <rdf:RDF>
      <cc:Work
         rdf:about="">
        <dc:format>image/svg+xml</dc:format>
        <dc:type
           rdf:resource="http://purl.org/dc/dcmitype/StillImage" />
        <dc:title>GrAF logo</dc:title>
        <dc:date>10.10.2012</dc:date>
        <dc:creator>
          <cc:Agent>
            <dc:title>Christian Mayer</dc:title>
          </cc:Agent>
        </dc:creator>
        <dc:rights>
          <cc:Agent>
            <dc:title>all rights reserved!</dc:title>
          </cc:Agent>
        </dc:rights>
        <dc:description>This logo is only allowed to be used in the context of the Grafic Automation Framework project.
See http://www.graf-project.org/</dc:description>
      </cc:Work>
    </rdf:RDF>
  </metadata>
  <g
     inkscape:label="Layer 1"
     inkscape:groupmode="layer"
     id="layer1"
     transform="translate(-203.26323,-94.276246)">
    <g
       id="g8835">
      <rect
         y="274.2334"
         x="204.26323"
         height="177.16534"
         width="354.33069"
         id="rect8829"
         style="color:#000000;fill:#ffff00;fill-opacity:1;fill-rule:nonzero;marker:none;visibility:visible;display:inline;overflow:visible;enable-background:accumulate" />
      <path
         inkscape:connector-curvature="0"
         d="m 208.84282,275.20916 2.90468,-43.96817 2.90468,-32.97613 2.90468,-24.76874 3.01639,-18.53991 2.90468,-13.92326 2.90468,-10.4058 2.90468,-7.84099 2.90468,-5.86243 3.0164,-4.39681 2.90468,-3.29762 2.90468,-2.49153 3.0164,-1.832 2.90468,-1.39233 2.90468,-1.0992 2.90468,-0.73281 2.90468,-0.58624 3.0164,-0.43968 2.90468,-0.3664 2.90468,-0.21984 3.01639,-0.219845 2.90468,-0.146561 2.90468,43.894896 2.90468,32.90285 3.0164,24.69546 2.90468,18.46663 2.90468,13.92326 2.90468,10.4058 2.90468,7.84099 3.0164,5.86243 2.90468,4.32353 2.90468,3.29762 3.0164,2.49153 2.90468,1.83199 2.90468,1.39233 2.90468,1.0992 2.90468,0.73281 3.01639,0.58624 2.90468,0.43968 2.90468,0.3664 3.0164,0.21984 2.90468,0.21984 2.90468,-43.89488 2.90468,-32.82957 3.0164,-24.69546 2.90468,-18.46663 2.90468,-13.84998 2.90468,-10.47908 2.90468,-7.76771 3.0164,-5.86243 2.90468,-4.39681 2.90468,-3.29762 3.01639,-2.41825 2.90468,-1.90529 2.90468,-1.39232 2.90468,-1.02592 2.90468,-0.80609 3.0164,-0.51296 2.90468,-0.43968 2.90468,-0.3664 3.0164,-0.21984 2.90468,-0.219845 2.90468,43.821615 2.90468,32.90285 2.90468,24.69546 3.0164,18.46664 2.90468,13.84997 2.90468,10.4058 2.90468,7.84099 3.01639,5.86243 2.90468,4.39681 2.90468,3.22434 3.0164,2.49153 2.90468,1.83199 2.90468,1.39233 2.90468,1.0992 2.90468,0.73281 3.0164,0.58624 2.90468,0.43968 2.90468,0.3664 3.0164,0.21984 2.90468,0.21984 2.90468,-43.89488 2.90468,-32.82957 2.90468,-24.69546 3.01639,-18.46663 2.90468,-13.84998 2.90468,-10.47908 2.90468,-7.76771 3.0164,-5.86243 2.90468,-4.39681 2.90468,-3.29762 3.0164,-2.41825 2.90468,-1.90529 2.90468,-1.39232 2.90468,-1.02592 2.90468,-0.80609 3.0164,-0.51296 2.90468,-0.43968 2.90468,-0.3664 2.90468,-0.21984 3.01639,-0.219845 2.90468,43.821615 2.90468,32.90285 2.90468,24.69546 3.0164,18.46664 2.90468,13.84997 2.90468,10.4058 2.90468,7.84099 3.0164,5.86243 2.90468,4.39681 2.90468,3.22434 2.90468,2.49153 3.0164,1.83199 2.90468,1.39233 2.90468,1.0992 2.90468,0.73281 3.01639,0.58624 2.90468,0.43968 2.90468,0.3664 2.90468,0.21984"
         style="fill:#ffff00;stroke:#008000;stroke-width:8.84799957;stroke-linecap:butt;stroke-linejoin:round;stroke-miterlimit:10;stroke-opacity:1;stroke-dasharray:none"
         id="path4940" />
      <text
         sodipodi:linespacing="125%"
         id="text8831"
         y="409.47208"
         x="222.17245"
         style="font-size:144px;font-style:normal;font-variant:normal;font-weight:normal;font-stretch:normal;text-align:start;line-height:125%;letter-spacing:0px;word-spacing:0px;writing-mode:lr-tb;text-anchor:start;fill:#000000;fill-opacity:1;stroke:none;font-family:Linux Libertine O;-inkscape-font-specification:Linux Libertine O"
         xml:space="preserve"><tspan
           y="409.47208"
           x="222.17245"
           id="tspan8833"
           sodipodi:role="line">GrAF</tspan></text>
    </g>
  </g>
</svg>
